<?xml version="1.0" standalone="no"?>
<!DOCTYPE svg PUBLIC "-//W3C//DTD SVG 20010904//EN"
 "http://www.w3.org/TR/2001/REC-SVG-20010904/DTD/svg10.dtd">
<svg version="1.0" xmlns="http://www.w3.org/2000/svg"
 width="605.000000pt" height="605.000000pt" viewBox="0 0 605.000000 605.000000"
 preserveAspectRatio="xMidYMid meet">
<metadata>
Created by potrace 1.14, written by Peter Selinger 2001-2017
</metadata>
<g transform="translate(0.000000,605.000000) scale(0.100000,-0.100000)"
fill="#000000" stroke="none">
<path d="M2749 5931 c-334 -214 -870 -556 -894 -571 -28 -17 -145 -91 -260
-165 -44 -29 -244 -157 -445 -285 -404 -257 -470 -300 -470 -304 0 -1 39 -1
88 0 119 3 752 17 1352 29 173 4 380 8 460 10 80 2 186 5 235 6 50 1 95 3 100
5 10 4 14 1369 4 1378 -2 2 -79 -45 -170 -103z"/>
<path d="M3129 5988 c-4 -259 2 -1323 8 -1329 4 -4 157 -10 338 -14 338 -6
516 -10 945 -20 135 -3 364 -8 510 -11 146 -3 304 -7 353 -8 48 -2 87 -2 87
-1 0 3 -129 86 -370 240 -102 65 -221 141 -265 169 -97 63 -257 165 -290 186
-14 8 -87 55 -162 103 -76 49 -205 131 -288 184 -82 53 -292 187 -465 298
-173 111 -334 214 -357 228 l-43 27 -1 -52z"/>
<path d="M2657 4444 c-1 -1 -139 -5 -307 -8 -168 -4 -395 -9 -505 -11 -110 -3
-299 -7 -420 -10 -121 -2 -366 -8 -545 -12 -179 -3 -346 -7 -372 -7 -28 -1
-48 -6 -48 -12 0 -10 123 -346 200 -544 15 -41 52 -138 80 -215 176 -476 332
-893 340 -910 5 -11 67 -177 138 -370 72 -192 137 -365 144 -383 l14 -33 229
393 c125 216 235 404 244 418 10 14 32 52 51 85 35 63 103 179 177 302 24 40
43 76 43 80 0 3 6 14 14 22 7 9 25 36 38 61 14 25 129 223 255 440 261 446
250 428 320 547 61 104 93 162 93 167 0 3 -179 3 -183 0z"/>
<path d="M3214 4433 c3 -7 43 -77 90 -155 46 -79 93 -159 104 -178 19 -35 427
-732 717 -1225 84 -143 162 -276 173 -295 11 -19 73 -125 137 -235 65 -110
145 -246 177 -302 33 -57 63 -105 67 -107 4 -3 19 30 34 72 14 42 53 149 85
237 33 88 108 291 167 450 59 160 143 387 187 505 44 118 106 287 138 375 32
88 113 306 179 485 74 201 116 327 110 331 -6 3 -79 7 -162 8 -84 2 -213 4
-287 6 -74 2 -279 6 -455 10 -176 3 -383 8 -460 10 -77 2 -288 6 -470 10 -181
4 -376 8 -433 9 -81 2 -102 0 -98 -11z"/>
<path d="M2844 4042 c-98 -168 -206 -354 -240 -412 -34 -58 -136 -233 -227
-389 -92 -156 -167 -286 -167 -288 0 -3 -8 -17 -19 -31 -10 -15 -30 -47 -43
-72 -14 -25 -159 -272 -321 -550 -162 -278 -294 -506 -293 -507 2 -3 1288 -4
2594 -3 l393 0 -26 45 c-14 25 -37 66 -51 92 -15 27 -35 59 -44 73 -9 14 -28
45 -42 70 -14 25 -74 128 -133 230 -60 102 -130 221 -155 265 -26 44 -125 213
-220 375 -95 162 -314 538 -488 835 -173 297 -320 548 -327 557 -10 15 -38
-29 -191 -290z"/>
<path d="M5587 3788 c-77 -208 -200 -541 -297 -803 -50 -137 -94 -257 -97
-265 -4 -8 -7 -17 -8 -20 -1 -3 -5 -12 -8 -20 -3 -8 -15 -40 -26 -70 -36 -102
-81 -225 -90 -245 -41 -90 -215 -585 -207 -586 6 -1 20 -3 31 -4 11 -1 54 -5
95 -9 41 -4 91 -9 110 -11 19 -2 67 -7 105 -10 39 -3 86 -8 105 -10 19 -3 64
-7 100 -10 110 -8 194 -16 213 -21 10 -3 18 0 18 8 2 17 5 2198 3 2198 -1 0
-22 -55 -47 -122z"/>
<path d="M415 2803 c0 -714 4 -1098 10 -1097 6 1 51 5 100 9 50 4 104 8 120
10 17 2 64 7 105 10 41 4 93 8 115 11 22 2 65 6 95 8 132 10 240 22 244 28 2
2 -360 981 -402 1088 -14 38 -189 512 -224 610 -16 47 -34 94 -39 105 -22 51
-109 293 -109 303 0 7 -4 12 -8 12 -4 0 -7 -494 -7 -1097z"/>
<path d="M1590 1578 c0 -4 12 -20 26 -35 14 -15 65 -71 112 -123 48 -52 94
-101 102 -110 15 -16 217 -236 235 -256 6 -6 52 -56 103 -111 51 -55 100 -109
110 -120 9 -11 58 -65 109 -119 50 -54 100 -108 110 -120 10 -12 65 -72 123
-134 58 -62 113 -121 122 -132 18 -21 154 -170 233 -255 l51 -55 84 93 c47 51
90 97 95 103 6 6 55 61 110 121 55 60 109 119 120 131 11 11 42 45 69 75 27
30 90 99 141 154 51 55 105 114 119 130 15 17 44 48 65 70 20 22 84 92 141
155 58 63 128 140 157 170 28 30 60 65 70 76 10 12 61 67 113 124 114 123 139
152 139 165 1 5 -531 9 -1429 10 -786 0 -1430 -3 -1430 -7z"/>
<path d="M1216 1573 c-2 -2 -64 -8 -186 -18 -36 -3 -83 -8 -105 -10 -197 -20
-227 -22 -275 -24 -32 -1 -23 -8 118 -98 84 -54 160 -103 170 -108 9 -6 31
-19 47 -29 17 -11 59 -38 95 -61 36 -22 251 -160 478 -305 227 -146 474 -304
550 -352 75 -49 144 -92 152 -98 94 -63 149 -96 139 -82 -15 19 -198 221 -215
237 -5 5 -55 59 -110 119 -54 61 -106 117 -114 126 -43 47 -116 127 -215 235
-60 66 -128 140 -151 165 -46 48 -48 51 -169 185 -115 127 -112 125 -162 122
-25 -1 -45 -3 -47 -4z"/>
<path d="M4679 1508 c-113 -127 -270 -300 -378 -416 -57 -62 -112 -121 -120
-131 -9 -10 -63 -69 -121 -131 -58 -62 -116 -125 -130 -140 -14 -15 -70 -76
-126 -136 -117 -127 -175 -194 -154 -178 8 6 53 36 100 66 101 65 909 581
1183 756 105 67 233 149 282 181 50 32 116 75 149 95 32 21 56 39 54 42 -3 2
-32 7 -64 9 -61 5 -132 12 -219 20 -27 2 -79 7 -115 10 -36 3 -85 8 -110 10
-25 3 -73 7 -106 10 l-62 4 -63 -71z"/>
</g>
</svg>
